# xmcd
#
# Track frame offsets:
#	150
#	26196
#	42456
#	62066
#	74701
#	83295
#	100567
#	121565
#	144257
#	161120
#	176972
#	194467
#
# Disc length: 2743 seconds
#
# Revision: 4
# Processed by: cddbd v1.5PL3 Copyright (c) Steve Scherf et al.
# Submitted via: CDDB.pm 1.12
#
DISCID=a30ab50c
DTITLE=The Rockingbirds - The Rockingbirds
DYEAR=1992
DGENRE=Country
TTITLE0=Gradually Learning
TTITLE1=Further Down The Line
TTITLE2=Standing At The Doorstep Of Love
TTITLE3=Jonathan Jonathan
TTITLE4=The Day My Life Begins
TTITLE5=Searching
TTITLE6=Restless
TTITLE7=Time Drives The Truck
TTITLE8=Halfway To Comatose
TTITLE9=In All Buildings
TTITLE10=Only One Flower
TTITLE11=Drifting
EXTD=
EXTT0=
EXTT1=
EXTT2=
EXTT3=
EXTT4=
EXTT5=
EXTT6=
EXTT7=
EXTT8=
EXTT9=
EXTT10=
EXTT11=
PLAYORDER=
